<?xml version="1.0" encoding="UTF-8" standalone="no"?>
<!-- Created with Inkscape (http://www.inkscape.org/) -->

<svg
   width="240mm"
   height="240.1756mm"
   viewBox="0 0 240 240.1756"
   version="1.1"
   id="svg5"
   xml:space="preserve"
   inkscape:version="1.4.2 (f4327f4, 2025-05-13)"
   sodipodi:docname="Circle 1.svg"
   xmlns:inkscape="http://www.inkscape.org/namespaces/inkscape"
   xmlns:sodipodi="http://sodipodi.sourceforge.net/DTD/sodipodi-0.dtd"
   xmlns="http://www.w3.org/2000/svg"
   xmlns:svg="http://www.w3.org/2000/svg"><sodipodi:namedview
     id="namedview7"
     pagecolor="#ffffff"
     bordercolor="#cccccc"
     borderopacity="1"
     inkscape:showpageshadow="0"
     inkscape:pageopacity="1"
     inkscape:pagecheckerboard="0"
     inkscape:deskcolor="#d1d1d1"
     inkscape:document-units="mm"
     showgrid="false"
     inkscape:zoom="0.82106903"
     inkscape:cx="296.56459"
     inkscape:cy="429.31835"
     inkscape:window-width="1920"
     inkscape:window-height="1111"
     inkscape:window-x="-9"
     inkscape:window-y="-9"
     inkscape:window-maximized="1"
     inkscape:current-layer="layer3" /><defs
     id="defs2"><pattern
       id="EMFhbasepattern"
       patternUnits="userSpaceOnUse"
       width="6"
       height="6"
       x="0"
       y="0" /></defs><g
     inkscape:groupmode="layer"
     id="layer3"
     inkscape:label="Background"
     transform="translate(-2.5994599,-52.223276)"><path
       id="path1322"
       style="fill:#d5e5ff;stroke:#000000;stroke-width:1.24624"
       d="M 241.97633,172.39888 A 119.37688,119.37688 0 0 1 122.59946,291.77576 119.37688,119.37688 0 0 1 3.22258,172.39888 119.37688,119.37688 0 0 1 122.59946,53.022003 119.37688,119.37688 0 0 1 241.97633,172.39888 Z" /><path
       id="path3204-9-6-4-4-2"
       style="fill:#aaccff;stroke:#000000;stroke-width:0.986176"
       transform="scale(-1)"
       d="m -23.092545,-172.39888 a 99.506912,99.506912 0 0 1 -99.506915,99.506912 99.506912,99.506912 0 0 1 -99.50691,-99.506912 99.506912,99.506912 0 0 1 99.50691,-99.50691 99.506912,99.506912 0 0 1 99.506915,99.50691 z" /><path
       id="path3204-9-6-4-4"
       style="fill:#80b3ff;stroke:#000000;stroke-width:1.05833"
       transform="scale(-1)"
       d="m -43.164932,-172.39888 a 79.434525,79.434525 0 0 1 -79.434528,79.434525 79.434525,79.434525 0 0 1 -79.43452,-79.434525 79.434525,79.434525 0 0 1 79.43452,-79.43452 79.434525,79.434525 0 0 1 79.434528,79.43452 z" /><path
       id="path3204-9-6-4"
       style="fill:#2a7fff;stroke:#000000;stroke-width:1.05833"
       transform="rotate(-90)"
       d="m -170.47825,181.58122 a 59.013027,59.013027 0 0 1 -60.11532,-49.18812 59.013027,59.013027 0 0 1 40.70409,-66.155121 59.013027,59.013027 0 0 1 71.00568,31.488337 l -53.51508,24.873144 z" /><path
       id="path4646-6-8"
       style="fill:#ffd5d5;stroke:#000000;stroke-width:1.05958"
       d="m 71.681258,64.386444 a 119.32299,118.31049 0 0 1 114.860632,6.978883 119.32299,118.31049 0 0 1 55.49887,99.953243 l -119.32299,0.0102 z" /><path
       id="path3204-9-6"
       style="fill:#0044aa;stroke:#000000;stroke-width:1.05833"
       transform="rotate(-90)"
       d="m -133.4573,117.0332 a 39.335892,39.335892 0 0 1 -30.62656,44.01391 39.335892,39.335892 0 0 1 -46.07462,-27.42883 39.335892,39.335892 0 0 1 24.09304,-47.903408 39.335892,39.335892 0 0 1 49.49109,20.635978 l -35.82297,16.24891 z" /><path
       id="path3204-9"
       style="fill:#002255;stroke:#000000;stroke-width:1.05833"
       transform="rotate(-90)"
       d="m -148.06061,122.59946 a 24.338274,24.338274 0 0 1 -24.33827,24.33827 24.338274,24.338274 0 0 1 -24.33827,-24.33827 24.338274,24.338274 0 0 1 24.33827,-24.338277 24.338274,24.338274 0 0 1 24.33827,24.338277 z" /><path
       style="fill:none;fill-opacity:1;stroke:#000000;stroke-width:1.05833;stroke-dasharray:none;stroke-opacity:1"
       d="m 114.53244,154.51122 4.54913,9.28054"
       id="path4435-8"
       sodipodi:nodetypes="cc" /><path
       style="fill:#ffffff;fill-opacity:1;stroke:none;stroke-width:1.05833;stroke-dasharray:none;stroke-opacity:1"
       d="m 119.2889,153.74816 1.27893,-0.18616 1.18981,8.77415 -1.16649,0.15335 z"
       id="path4801"
       sodipodi:nodetypes="ccccc" /><path
       id="path4646"
       style="fill:#ffaaaa;stroke:#000000;stroke-width:1.05729"
       d="m 80.027425,82.453517 a 99.487,98.31636 0 0 1 95.766455,5.799472 99.487,98.31636 0 0 1 46.27286,83.061431 l -99.487,0.008 z" /><path
       id="path4646-6"
       style="fill:#ff8080;stroke:#000000;stroke-width:1.05717"
       d="m 88.643947,100.51079 a 79.406975,78.544479 0 0 1 76.437363,4.63318 79.406975,78.544479 0 0 1 36.93335,66.35738 l -79.40697,0.007 z" /><path
       id="path4646-6-3"
       style="fill:#d40000;stroke:#000000;stroke-width:1.05833"
       d="m 105.93049,136.7238 a 39.380264,38.333946 0 0 1 37.78864,2.42723 39.380264,38.333946 0 0 1 18.21249,32.32177 l -39.38027,0.003 z" /><path
       id="path4646-6-3-9"
       style="fill:#550000;stroke:#000000;stroke-width:1.05833"
       d="m 112.57599,150.27945 a 24.151428,23.346527 0 0 1 23.17531,1.47826 24.151428,23.346527 0 0 1 11.16949,19.68493 l -24.15143,0.002 z" /><path
       id="path3204"
       style="fill:#ccaaff;stroke:#000000;stroke-width:1.05833"
       transform="scale(-1)"
       d="m -113.01549,-172.39888 a 9.583971,9.583971 0 0 1 -9.58397,9.58397 9.583971,9.583971 0 0 1 -9.58397,-9.58397 9.583971,9.583971 0 0 1 9.58397,-9.58397 9.583971,9.583971 0 0 1 9.58397,9.58397 z" /><path
       style="fill:none;fill-opacity:1;stroke:#000000;stroke-width:1.05833;stroke-dasharray:none;stroke-opacity:1"
       d="m 156.19158,116.36604 59.01049,17.0273"
       id="path4486"
       transform="translate(22.599457,72.39888)"
       sodipodi:nodetypes="cc" /><path
       style="fill:none;fill-opacity:1;stroke:#000000;stroke-width:1.05833;stroke-dasharray:none;stroke-opacity:1"
       d="m 149.80103,132.25022 50.92152,32.21983"
       id="path4488"
       transform="translate(22.599457,72.39888)"
       sodipodi:nodetypes="cc" /><path
       style="fill:none;fill-opacity:1;stroke:#000000;stroke-width:1.05833;stroke-dasharray:none;stroke-opacity:1"
       d="m 124.74279,153.51581 25.80586,55.07044"
       id="path4490"
       transform="translate(22.599457,72.39888)"
       sodipodi:nodetypes="cc" /><path
       style="fill:none;fill-opacity:1;stroke:#000000;stroke-width:1.05833;stroke-dasharray:none;stroke-opacity:1"
       d="m 108.7233,158.66268 8.96295,59.39214"
       id="path4492"
       transform="translate(22.599457,72.39888)"
       sodipodi:nodetypes="cc" /><path
       style="fill:none;fill-opacity:1;stroke:#000000;stroke-width:1.05833;stroke-dasharray:none;stroke-opacity:1"
       d="m 91.632003,158.41636 -8.176995,60.25273"
       id="path4494"
       transform="translate(22.599457,72.39888)"
       sodipodi:nodetypes="cc" /><path
       style="fill:none;fill-opacity:1;stroke:#000000;stroke-width:1.05833;stroke-dasharray:none;stroke-opacity:1"
       d="M 75.63682,153.47866 50.400433,208.86739"
       id="path4496"
       transform="translate(22.599457,72.39888)"
       sodipodi:nodetypes="cc" /><path
       style="fill:none;fill-opacity:1;stroke:#000000;stroke-width:1.05833;stroke-dasharray:none;stroke-opacity:1"
       d="M 74.573775,129.56987 21.715646,190.60991"
       id="path4504"
       transform="translate(22.599457,72.39888)"
       sodipodi:nodetypes="cc" /><path
       style="fill:none;fill-opacity:1;stroke:#000000;stroke-width:1.05833;stroke-dasharray:none;stroke-opacity:1"
       d="M 76.794996,93.596489 -15.01358,66.614483"
       id="path4506"
       transform="translate(22.599457,72.39888)"
       sodipodi:nodetypes="cc" /><path
       style="fill:none;fill-opacity:1;stroke:#000000;stroke-width:1.05833;stroke-dasharray:none;stroke-opacity:1"
       d="M 66.9671,79.934574 -1.3591433,36.777841"
       id="path4508"
       transform="translate(22.599457,72.39888)"
       sodipodi:nodetypes="cc" /><path
       style="fill:none;fill-opacity:1;stroke:#000000;stroke-width:1.05833;stroke-dasharray:none;stroke-opacity:1"
       d="M 74.900919,46.889617 49.193398,-8.0277764"
       id="path4510"
       sodipodi:nodetypes="cc"
       transform="translate(22.599457,72.39888)" /><path
       style="fill:none;fill-opacity:1;stroke:#000000;stroke-width:1.05833;stroke-dasharray:none;stroke-opacity:1"
       d="M 82.430505,-18.228434 96.4711,76.349544"
       id="path4512"
       transform="translate(22.599457,72.39888)"
       sodipodi:nodetypes="cc" /><path
       style="fill:none;fill-opacity:1;stroke:#000000;stroke-width:1.05833;stroke-dasharray:none;stroke-opacity:1"
       d="M 105.07087,61.340367 116.0988,-18.30669"
       id="path4514"
       sodipodi:nodetypes="cc"
       transform="translate(22.599457,72.39888)" /><path
       style="fill:none;fill-opacity:1;stroke:#000000;stroke-width:1.05833;stroke-dasharray:none;stroke-opacity:1"
       d="m 125.81358,129.59886 53.06631,60.37088"
       id="path4433"
       transform="translate(22.599457,72.39888)"
       sodipodi:nodetypes="cc"
       inkscape:label="path4433" /><path
       style="fill:none;fill-opacity:1;stroke:#000000;stroke-width:1.05833;stroke-dasharray:none;stroke-opacity:1"
       d="M 149.52994,-8.9789653 116.0638,64.480295"
       id="path4516"
       transform="translate(22.599457,72.39888)"
       sodipodi:nodetypes="cc" /><path
       style="fill:none;fill-opacity:1;stroke:#000000;stroke-width:1.05833;stroke-dasharray:none;stroke-opacity:1"
       d="M 178.17013,9.5187487 125.72489,70.220847"
       id="path4518"
       transform="translate(22.599457,72.39888)"
       sodipodi:nodetypes="cc" /><path
       style="fill:none;fill-opacity:1;stroke:#000000;stroke-width:1.05833;stroke-dasharray:none;stroke-opacity:1"
       d="M 201.05148,35.818413 133.28845,79.071345"
       id="path4520"
       transform="translate(22.599457,72.39888)"
       sodipodi:nodetypes="cc" /><path
       style="fill:none;fill-opacity:1;stroke:#000000;stroke-width:1.05833;stroke-dasharray:none;stroke-opacity:1"
       d="m 214.23197,65.960683 -76.6613,23.03953"
       id="path4522"
       transform="translate(22.599457,72.39888)"
       sodipodi:nodetypes="cc" /><path
       style="fill:none;fill-opacity:1;stroke:#000000;stroke-width:1.05833;stroke-dasharray:none;stroke-opacity:1"
       d="M 60.986896,55.78863 20.97944,10.0402"
       id="path4524"
       transform="translate(22.599457,72.39888)"
       sodipodi:nodetypes="cc" /><path
       style="fill:none;fill-opacity:1;stroke:#000000;stroke-width:1.05833;stroke-dasharray:none;stroke-opacity:1"
       d="M 50.625635,131.63012 -0.90389375,164.43368"
       id="path4526"
       transform="translate(22.599457,72.39888)"
       sodipodi:nodetypes="cc" /><path
       style="fill:none;fill-opacity:1;stroke:#000000;stroke-width:1.05833;stroke-dasharray:none;stroke-opacity:1"
       d="m 42.963588,116.45404 -57.51773,16.7906"
       id="path4528"
       transform="translate(22.599457,72.39888)"
       sodipodi:nodetypes="cc" /><path
       style="fill:none;fill-opacity:1;stroke:#000000;stroke-width:1.05833;stroke-dasharray:none;stroke-opacity:1"
       d="M 41.135138,99.34495 -19.141955,99.182218"
       id="path4530"
       transform="translate(22.599457,72.39888)"
       sodipodi:nodetypes="cc" /></g></svg>
